# xmcd
#
# Track frame offsets: 
#        150
#        19270
#        49103
#        63340
#        81898
#        105150
#        117583
#        153238
#        194058
#        225057
#        245841
#        258420
#        300340
#        318661
#
# Disc length: 4534 seconds
#
# Revision: 0
# Processed by: cddbd v1.5.1PL2 Copyright (c) Steve Scherf et al.
# Submitted via: ExactAudioCopy v0.95a5
#
DISCID=b211b40e
DTITLE=Sawoy Brown - Blue Matter (1-9) and Raw Live 'n' Blues Vol 2 (10-
DTITLE=14)
DYEAR=1900
DGENRE=
TTITLE0=Train To Nowhere
TTITLE1=Tolling Bells
TTITLE2=She's Got A Ring In His Nose And A Ring On Her Hand
TTITLE3=Vicksburg Blues
TTITLE4=Don't Turn Me FRom Your Door
TTITLE5=Grits Ain't Groceries
TTITLE6=May Be Wrong
TTITLE7=Louisiana Blues
TTITLE8=It Hurts Me Too
TTITLE9=Street Corner Talking
TTITLE10=I'm Tired
TTITLE11=Hellboun Train
TTITLE12=Train To Nowhere
TTITLE13=I Can't Get Next To You
EXTD=
EXTT0=
EXTT1=
EXTT2=
EXTT3=
EXTT4=
EXTT5=
EXTT6=
EXTT7=
EXTT8=
EXTT9=
EXTT10=
EXTT11=
EXTT12=
EXTT13=
PLAYORDER=
